<mxfile host="app.diagrams.net" modified="2023-01-19T10:46:28.604Z" agent="5.0 (Windows NT 10.0; Win64; x64) AppleWebKit/537.36 (KHTML, like Gecko) Chrome/109.0.0.0 Safari/537.36" etag="xOuqHVoXz-2dAa4cFgMO" version="20.8.5" type="github">
  <diagram id="kEw_2ZZjud_J4hwYAVpJ" name="PÃ¡gina-1">
    <mxGraphModel dx="1434" dy="764" grid="1" gridSize="10" guides="1" tooltips="1" connect="1" arrows="1" fold="1" page="1" pageScale="1" pageWidth="827" pageHeight="1169" math="0" shadow="0">
      <root>
        <mxCell id="0" />
        <mxCell id="1" parent="0" />
        <mxCell id="o8uN_uvWkEPwUaVzKneg-1" value="&lt;font style=&quot;font-size: 20px;&quot; face=&quot;Times New Roman&quot;&gt;&lt;b&gt;CLIENTE(&lt;/b&gt;&lt;u style=&quot;font-weight: bold;&quot;&gt;id_cliente&lt;/u&gt;&lt;b&gt;,&amp;nbsp;&lt;/b&gt;nombre&lt;b&gt;, &lt;/b&gt;apellido1&lt;b&gt;, &lt;/b&gt;apellido2&lt;b&gt;, &lt;u&gt;DNI&lt;/u&gt;,&amp;nbsp;&lt;/b&gt;fecha_nacimiento, telefono, sexo, pais)&amp;nbsp;&lt;/font&gt;" style="text;html=1;strokeColor=none;fillColor=none;align=center;verticalAlign=middle;whiteSpace=wrap;rounded=0;" parent="1" vertex="1">
          <mxGeometry x="10" y="120" width="800" height="30" as="geometry" />
        </mxCell>
        <mxCell id="o8uN_uvWkEPwUaVzKneg-2" value="&lt;div style=&quot;text-align: center;&quot;&gt;&lt;b&gt;VEHICULO(&lt;u&gt;id_vehiculo&lt;/u&gt;,&amp;nbsp;&lt;u&gt;matriculaV&lt;/u&gt;, &lt;u&gt;categoriaV&lt;/u&gt;, &lt;u&gt;modeloV&lt;/u&gt;, &lt;/b&gt;anyo_fabricacion&lt;b&gt;)&lt;/b&gt;&lt;/div&gt;" style="text;whiteSpace=wrap;html=1;fontSize=20;fontFamily=Times New Roman;" parent="1" vertex="1">
          <mxGeometry x="10" y="300" width="710" height="70" as="geometry" />
        </mxCell>
        <mxCell id="o8uN_uvWkEPwUaVzKneg-3" value="&lt;div style=&quot;text-align: center;&quot;&gt;&lt;b&gt;RESERVA(&lt;u&gt;id_reserva,&lt;/u&gt;&amp;nbsp;&lt;u&gt;id_cliente&lt;/u&gt;, &lt;u&gt;id_vehiculo&lt;/u&gt;, &lt;/b&gt;trayecto, fecha_alquiler, inicioA, finA&lt;b&gt;&amp;nbsp;&amp;nbsp;&lt;/b&gt;&lt;b&gt;)&lt;/b&gt;&lt;/div&gt;" style="text;whiteSpace=wrap;html=1;fontSize=20;fontFamily=Times New Roman;" parent="1" vertex="1">
          <mxGeometry x="10" y="200" width="760" height="40" as="geometry" />
        </mxCell>
        <mxCell id="o8uN_uvWkEPwUaVzKneg-5" value="" style="verticalLabelPosition=bottom;verticalAlign=top;html=1;shape=mxgraph.basic.arc;startAngle=0.37724147070861774;endAngle=0.6200280260882054;fontFamily=Times New Roman;fontSize=20;" parent="1" vertex="1">
          <mxGeometry x="90" y="90" width="120" height="70" as="geometry" />
        </mxCell>
        <mxCell id="o8uN_uvWkEPwUaVzKneg-6" value="" style="verticalLabelPosition=bottom;verticalAlign=top;html=1;shape=mxgraph.basic.arc;startAngle=0.887391245162546;endAngle=0.12724147070861772;fontFamily=Times New Roman;fontSize=20;" parent="1" vertex="1">
          <mxGeometry x="190" y="200" width="120" height="70" as="geometry" />
        </mxCell>
        <mxCell id="o8uN_uvWkEPwUaVzKneg-9" value="" style="endArrow=classic;html=1;rounded=0;fontFamily=Times New Roman;fontSize=20;entryX=0.365;entryY=0.008;entryDx=0;entryDy=0;entryPerimeter=0;exitX=0.514;exitY=1.018;exitDx=0;exitDy=0;exitPerimeter=0;" parent="1" source="o8uN_uvWkEPwUaVzKneg-5" target="o8uN_uvWkEPwUaVzKneg-6" edge="1">
          <mxGeometry width="50" height="50" relative="1" as="geometry">
            <mxPoint x="90" y="160" as="sourcePoint" />
            <mxPoint x="140" y="180" as="targetPoint" />
          </mxGeometry>
        </mxCell>
        <mxCell id="o8uN_uvWkEPwUaVzKneg-12" value="" style="verticalLabelPosition=bottom;verticalAlign=top;html=1;shape=mxgraph.basic.arc;startAngle=0.39112979695980993;endAngle=0.5982631995663225;fontFamily=Times New Roman;fontSize=20;" parent="1" vertex="1">
          <mxGeometry x="270" y="170" width="160" height="70" as="geometry" />
        </mxCell>
        <mxCell id="o8uN_uvWkEPwUaVzKneg-13" value="" style="verticalLabelPosition=bottom;verticalAlign=top;html=1;shape=mxgraph.basic.arc;startAngle=0.9082670345672316;endAngle=0.09835240482574906;fontFamily=Times New Roman;fontSize=20;" parent="1" vertex="1">
          <mxGeometry x="100" y="300" width="150" height="70" as="geometry" />
        </mxCell>
        <mxCell id="o8uN_uvWkEPwUaVzKneg-14" value="" style="endArrow=classic;html=1;rounded=0;fontFamily=Times New Roman;fontSize=20;entryX=0.447;entryY=1.1;entryDx=0;entryDy=0;entryPerimeter=0;exitX=0.25;exitY=0;exitDx=0;exitDy=0;" parent="1" source="o8uN_uvWkEPwUaVzKneg-2" target="o8uN_uvWkEPwUaVzKneg-3" edge="1">
          <mxGeometry width="50" height="50" relative="1" as="geometry">
            <mxPoint x="350" y="280" as="sourcePoint" />
            <mxPoint x="329.81000000000006" y="286.6699999999999" as="targetPoint" />
          </mxGeometry>
        </mxCell>
        <mxCell id="o8uN_uvWkEPwUaVzKneg-15" value="&lt;div style=&quot;text-align: center;&quot;&gt;&lt;b&gt;MODELO(&lt;/b&gt;&lt;u style=&quot;font-weight: bold;&quot;&gt;id_modelo,&lt;/u&gt;&amp;nbsp;&lt;b&gt;&lt;u&gt;marca,&lt;/u&gt;&amp;nbsp;&lt;/b&gt;nombre&lt;b&gt;)&lt;/b&gt;&lt;/div&gt;" style="text;whiteSpace=wrap;html=1;fontSize=20;fontFamily=Times New Roman;" parent="1" vertex="1">
          <mxGeometry x="430" y="370" width="310" height="50" as="geometry" />
        </mxCell>
        <mxCell id="o8uN_uvWkEPwUaVzKneg-16" value="&lt;div style=&quot;text-align: center;&quot;&gt;&lt;b&gt;CATEGORIA(&lt;/b&gt;&lt;u style=&quot;font-weight: bold;&quot;&gt;id_categoria,&lt;/u&gt;&lt;span style=&quot;font-weight: bold;&quot;&gt;&amp;nbsp;&lt;u&gt;nombre&lt;/u&gt;&lt;/span&gt;&lt;b&gt;)&lt;/b&gt;&lt;/div&gt;" style="text;whiteSpace=wrap;html=1;fontSize=20;fontFamily=Times New Roman;" parent="1" vertex="1">
          <mxGeometry x="90" y="370" width="310" height="50" as="geometry" />
        </mxCell>
        <mxCell id="o8uN_uvWkEPwUaVzKneg-17" value="" style="verticalLabelPosition=bottom;verticalAlign=top;html=1;shape=mxgraph.basic.arc;startAngle=0.3431235368016027;endAngle=0.6510809654481424;fontFamily=Times New Roman;fontSize=20;" parent="1" vertex="1">
          <mxGeometry x="330" y="310" width="110" height="30" as="geometry" />
        </mxCell>
        <mxCell id="o8uN_uvWkEPwUaVzKneg-19" value="" style="verticalLabelPosition=bottom;verticalAlign=top;html=1;shape=mxgraph.basic.arc;startAngle=0.9006385728992437;endAngle=0.10904400465620231;fontFamily=Times New Roman;fontSize=20;" parent="1" vertex="1">
          <mxGeometry x="200" y="370" width="150" height="70" as="geometry" />
        </mxCell>
        <mxCell id="o8uN_uvWkEPwUaVzKneg-21" value="" style="verticalLabelPosition=bottom;verticalAlign=top;html=1;shape=mxgraph.basic.arc;startAngle=0.33035118287570453;endAngle=0.6510809654481424;fontFamily=Times New Roman;fontSize=20;" parent="1" vertex="1">
          <mxGeometry x="430" y="310" width="90" height="30" as="geometry" />
        </mxCell>
        <mxCell id="o8uN_uvWkEPwUaVzKneg-22" value="" style="verticalLabelPosition=bottom;verticalAlign=top;html=1;shape=mxgraph.basic.arc;startAngle=0.9006385728992437;endAngle=0.1127813740139013;fontFamily=Times New Roman;fontSize=20;" parent="1" vertex="1">
          <mxGeometry x="500" y="370" width="140" height="60" as="geometry" />
        </mxCell>
        <mxCell id="o8uN_uvWkEPwUaVzKneg-23" value="" style="endArrow=classic;html=1;rounded=0;fontFamily=Times New Roman;fontSize=20;entryX=0.5;entryY=1;entryDx=0;entryDy=0;entryPerimeter=0;" parent="1" target="o8uN_uvWkEPwUaVzKneg-21" edge="1">
          <mxGeometry width="50" height="50" relative="1" as="geometry">
            <mxPoint x="560" y="370" as="sourcePoint" />
            <mxPoint x="530" y="350" as="targetPoint" />
          </mxGeometry>
        </mxCell>
        <mxCell id="o8uN_uvWkEPwUaVzKneg-24" value="&lt;div style=&quot;text-align: center;&quot;&gt;&lt;b&gt;MARCA(&lt;/b&gt;&lt;u style=&quot;font-weight: bold;&quot;&gt;id_marca,&lt;/u&gt;&amp;nbsp;&lt;b&gt;&lt;u&gt;marca,&lt;/u&gt;&amp;nbsp;&lt;/b&gt;nombre&lt;b&gt;)&lt;/b&gt;&lt;/div&gt;" style="text;whiteSpace=wrap;html=1;fontSize=20;fontFamily=Times New Roman;" parent="1" vertex="1">
          <mxGeometry x="430" y="440" width="310" height="50" as="geometry" />
        </mxCell>
        <mxCell id="o8uN_uvWkEPwUaVzKneg-25" value="" style="verticalLabelPosition=bottom;verticalAlign=top;html=1;shape=mxgraph.basic.arc;startAngle=0.38577367917457694;endAngle=0.6062888577385573;fontFamily=Times New Roman;fontSize=20;" parent="1" vertex="1">
          <mxGeometry x="610" y="340" width="90" height="70" as="geometry" />
        </mxCell>
        <mxCell id="o8uN_uvWkEPwUaVzKneg-26" value="" style="verticalLabelPosition=bottom;verticalAlign=top;html=1;shape=mxgraph.basic.arc;startAngle=0.9006385728992437;endAngle=0.13005084156792177;fontFamily=Times New Roman;fontSize=20;" parent="1" vertex="1">
          <mxGeometry x="505" y="440" width="115" height="70" as="geometry" />
        </mxCell>
        <mxCell id="o8uN_uvWkEPwUaVzKneg-27" value="" style="endArrow=classic;html=1;rounded=0;fontFamily=Times New Roman;fontSize=20;entryX=0.489;entryY=1.057;entryDx=0;entryDy=0;entryPerimeter=0;exitX=0.5;exitY=0;exitDx=0;exitDy=0;" parent="1" source="o8uN_uvWkEPwUaVzKneg-24" target="o8uN_uvWkEPwUaVzKneg-25" edge="1">
          <mxGeometry width="50" height="50" relative="1" as="geometry">
            <mxPoint x="670" y="430" as="sourcePoint" />
            <mxPoint x="490" y="510" as="targetPoint" />
          </mxGeometry>
        </mxCell>
        <mxCell id="lDtOOoaFi8bO41n_rQbP-1" value="" style="endArrow=classic;html=1;rounded=0;fontFamily=Times New Roman;fontSize=20;entryX=0.527;entryY=1;entryDx=0;entryDy=0;entryPerimeter=0;" edge="1" parent="1" target="o8uN_uvWkEPwUaVzKneg-17">
          <mxGeometry width="50" height="50" relative="1" as="geometry">
            <mxPoint x="280" y="370" as="sourcePoint" />
            <mxPoint x="432.22" y="314" as="targetPoint" />
          </mxGeometry>
        </mxCell>
      </root>
    </mxGraphModel>
  </diagram>
</mxfile>
